<svg width="25" height="24" viewBox="0 0 25 24" fill="none" xmlns="http://www.w3.org/2000/svg">
<path d="M15.11 11.5C15.11 12.11 14.66 12.61 14.09 12.61C13.53 12.61 13.07 12.11 13.07 11.5C13.07 10.89 13.52 10.39 14.09 10.39C14.66 10.39 15.11 10.89 15.11 11.5ZM10.44 10.39C9.87 10.39 9.42 10.89 9.42 11.5C9.42 12.11 9.88 12.61 10.44 12.61C11.01 12.61 11.46 12.11 11.46 11.5C11.47 10.89 11.01 10.39 10.44 10.39ZM21 4.06V22C18.4807 19.7737 19.2864 20.5106 16.36 17.79L16.89 19.64H5.55C4.42 19.64 3.5 18.72 3.5 17.58V4.06C3.5 2.92 4.42 2 5.55 2H18.95C20.08 2 21 2.92 21 4.06ZM18.15 13.54C18.15 10.32 16.71 7.71 16.71 7.71C15.27 6.63 13.9 6.66 13.9 6.66L13.76 6.82C15.46 7.34 16.25 8.09 16.25 8.09C13.8746 6.78809 11.0842 6.78785 8.78 7.8C8.41 7.97 8.19 8.09 8.19 8.09C8.19 8.09 9.02 7.3 10.82 6.78L10.72 6.66C10.72 6.66 9.35 6.63 7.91 7.71C7.91 7.71 6.47 10.32 6.47 13.54C6.47 13.54 7.31 14.99 9.52 15.06C9.52 15.06 9.89 14.61 10.19 14.23C8.92 13.85 8.44 13.05 8.44 13.05C8.58711 13.153 8.82969 13.2864 8.85 13.3C10.5379 14.2452 12.9355 14.5549 15.09 13.65C15.44 13.52 15.83 13.33 16.24 13.06C16.24 13.06 15.74 13.88 14.43 14.25C14.73 14.63 15.09 15.06 15.09 15.06C17.3 14.99 18.15 13.54 18.15 13.54Z" fill="white"/>
</svg>
