<svg width="21" height="20" viewBox="0 0 21 20" fill="none" xmlns="http://www.w3.org/2000/svg">
<path d="M2.67508 5.0004V4.99998C2.67508 4.35619 3.19615 3.83331 3.83341 3.83331H17.1667C17.8073 3.83331 18.3334 4.35946 18.3334 4.99998V15C18.3334 15.6405 17.8073 16.1666 17.1667 16.1666H3.83341C3.19295 16.1666 2.66685 15.6406 2.66675 15.0002C2.66675 15.0001 2.66675 15 2.66675 15L2.67508 5.0004ZM17.0985 7.29894L17.0985 7.29897L17.1029 7.29612C17.4508 7.0735 17.6667 6.69194 17.6667 6.27498C17.6667 5.31767 16.6231 4.75688 15.8218 5.24889L15.8218 5.24888L15.8183 5.25105L10.5001 8.57692L5.18186 5.25105L5.18187 5.25104L5.17838 5.24889C4.3771 4.75688 3.33341 5.31767 3.33341 6.27498C3.33341 6.69194 3.54938 7.0735 3.89722 7.29612L3.89721 7.29614L3.90169 7.29894L9.79336 10.9823L9.79342 10.9823C10.2222 11.2503 10.7779 11.2503 11.2067 10.9823L11.2068 10.9823L17.0985 7.29894Z" fill="white" stroke="white"/>
</svg>
