<svg width="21" height="20" viewBox="0 0 21 20" fill="none" xmlns="http://www.w3.org/2000/svg">
<path d="M18.3 9.78016L18.406 9.56113L18.299 9.34261C16.8404 6.36365 13.85 4.47915 10.4999 4.47915C9.98486 4.47915 9.48809 4.53667 9.00829 4.62207L8.42864 4.04243C9.09528 3.89195 9.78748 3.81248 10.4999 3.81248C14.3838 3.81248 17.7128 6.18537 19.1271 9.5629C18.64 10.7307 17.9218 11.7721 17.0294 12.6432L16.5649 12.1787C17.2655 11.4982 17.8584 10.6934 18.3 9.78016ZM10.7051 6.31886C12.335 6.42047 13.6416 7.72439 13.7361 9.34992L12.8163 8.43006C12.5644 7.91153 12.1425 7.48965 11.624 7.23779L10.7051 6.31886ZM3.35107 2.72927L17.4179 16.804L16.9499 17.272L14.4535 14.7756L14.2213 14.5434L13.916 14.6642C12.857 15.0831 11.7027 15.3125 10.4999 15.3125C6.61591 15.3125 3.28684 12.9395 1.87264 9.5618C2.4878 8.08319 3.47756 6.80407 4.71706 5.83072L5.16043 5.48255L4.76181 5.08393L2.88078 3.2029L3.35107 2.72927ZM8.77847 9.10059L7.92492 8.24704V9.44382C7.92483 9.44457 7.92473 9.44539 7.92461 9.44629L7.92428 9.44894C7.92197 9.46726 7.91658 9.50996 7.91658 9.56248C7.91658 10.9886 9.07377 12.1458 10.4999 12.1458C10.5982 12.1458 10.6865 12.1231 10.7157 12.1156C10.7178 12.1151 10.7197 12.1146 10.7212 12.1142L11.5779 11.9L10.9535 11.2756L8.77847 9.10059ZM5.94514 6.26726L5.63646 5.95858L5.28896 6.22279C4.2241 7.03244 3.32135 8.07502 2.70084 9.34265L2.59322 9.5625L2.70086 9.78235C4.1594 12.7613 7.14979 14.6458 10.4999 14.6458C11.341 14.6458 12.152 14.5218 12.9231 14.3115L13.7544 14.0848L13.1451 13.4756L12.3285 12.6589L12.0897 12.4201L11.779 12.5525C11.3893 12.7184 10.9559 12.8125 10.4999 12.8125C8.70939 12.8125 7.24992 11.353 7.24992 9.56248C7.24992 9.10707 7.34376 8.67246 7.51121 8.27205L7.64057 7.9627L7.40347 7.72559L5.94514 6.26726Z" fill="white" stroke="white"/>
</svg>
