<svg width="25" height="24" viewBox="0 0 25 24" fill="none" xmlns="http://www.w3.org/2000/svg">
<path d="M2.75 12C2.75 7.52166 2.75 5.28249 4.14124 3.89124C5.53249 2.5 7.77166 2.5 12.25 2.5C16.7283 2.5 18.9675 2.5 20.3588 3.89124C21.75 5.28249 21.75 7.52166 21.75 12C21.75 16.4783 21.75 18.7175 20.3588 20.1088C18.9675 21.5 16.7283 21.5 12.25 21.5C7.77166 21.5 5.53249 21.5 4.14124 20.1088C2.75 18.7175 2.75 16.4783 2.75 12Z" stroke="#E6E6E6" stroke-width="1.5" stroke-linejoin="round"/>
<path d="M16.75 12C16.75 14.4853 14.7353 16.5 12.25 16.5C9.76472 16.5 7.75 14.4853 7.75 12C7.75 9.51472 9.76472 7.5 12.25 7.5C14.7353 7.5 16.75 9.51472 16.75 12Z" stroke="#E6E6E6" stroke-width="1.5"/>
<path d="M17.7578 6.5H17.7488" stroke="#E6E6E6" stroke-width="2" stroke-linecap="round" stroke-linejoin="round"/>
</svg>
