<svg width="25" height="24" viewBox="0 0 25 24" fill="none" xmlns="http://www.w3.org/2000/svg">
<path d="M7.25 10V17" stroke="#E6E6E6" stroke-width="1.5" stroke-linecap="round" stroke-linejoin="round"/>
<path d="M11.25 13V17M11.25 13C11.25 11.3431 12.5931 10 14.25 10C15.9069 10 17.25 11.3431 17.25 13V17M11.25 13V10" stroke="#E6E6E6" stroke-width="1.5" stroke-linecap="round" stroke-linejoin="round"/>
<path d="M7.25801 7H7.24902" stroke="#E6E6E6" stroke-width="2" stroke-linecap="round" stroke-linejoin="round"/>
<path d="M2.75 12C2.75 7.52166 2.75 5.28249 4.14124 3.89124C5.53249 2.5 7.77166 2.5 12.25 2.5C16.7283 2.5 18.9675 2.5 20.3588 3.89124C21.75 5.28249 21.75 7.52166 21.75 12C21.75 16.4783 21.75 18.7175 20.3588 20.1088C18.9675 21.5 16.7283 21.5 12.25 21.5C7.77166 21.5 5.53249 21.5 4.14124 20.1088C2.75 18.7175 2.75 16.4783 2.75 12Z" stroke="#E6E6E6" stroke-width="1.5" stroke-linejoin="round"/>
</svg>
