<svg width="21" height="20" viewBox="0 0 21 20" fill="none" xmlns="http://www.w3.org/2000/svg">
<path d="M14.1666 7.08333V7.58333H14.6666H15.4999C16.1404 7.58333 16.6666 8.10948 16.6666 8.75V17.0833C16.6666 17.7239 16.1404 18.25 15.4999 18.25H5.49992C4.85939 18.25 4.33325 17.7239 4.33325 17.0833V8.75C4.33325 8.10948 4.85939 7.58333 5.49992 7.58333H6.33325H6.83325V7.08333V5.41667C6.83325 3.39281 8.47606 1.75 10.4999 1.75C12.5238 1.75 14.1666 3.39281 14.1666 5.41667V7.08333ZM7.49992 7.08333V7.58333H7.99992H12.9999H13.4999V7.08333V5.41667C13.4999 3.75719 12.1594 2.41667 10.4999 2.41667C8.84044 2.41667 7.49992 3.75719 7.49992 5.41667V7.08333ZM8.33325 12.9167C8.33325 14.1095 9.30711 15.0833 10.4999 15.0833C11.6927 15.0833 12.6666 14.1095 12.6666 12.9167C12.6666 11.7239 11.6927 10.75 10.4999 10.75C9.30711 10.75 8.33325 11.7239 8.33325 12.9167Z" fill="white" stroke="white"/>
</svg>
