<svg width="20" height="20" viewBox="0 0 20 20" fill="none" xmlns="http://www.w3.org/2000/svg">
<path d="M15 15.5H15.5V15V14.1667V14.0976L15.4813 14.0311C15.4241 13.8282 15.2884 13.6709 15.1731 13.5619C15.0485 13.4441 14.894 13.3331 14.7258 13.2302C14.3881 13.0236 13.9464 12.8203 13.4513 12.6413C12.4624 12.2838 11.1959 12 10 12C8.80422 12 7.53753 12.2838 6.54833 12.6425C6.05307 12.8221 5.61112 13.0263 5.27309 13.2344C5.10467 13.3381 4.95001 13.45 4.82528 13.5691C4.70945 13.6796 4.57477 13.8379 4.51828 14.0412L4.50004 14.1069V14.175V15V15.5H5.00004H15ZM12.8334 6.66671C12.8334 8.23223 11.5656 9.50004 10 9.50004C8.43452 9.50004 7.16671 8.23223 7.16671 6.66671C7.16671 5.10118 8.43452 3.83337 10 3.83337C11.5656 3.83337 12.8334 5.10118 12.8334 6.66671ZM12.1667 6.66671C12.1667 5.4739 11.1928 4.50004 10 4.50004C8.80723 4.50004 7.83337 5.4739 7.83337 6.66671C7.83337 7.85952 8.80723 8.83337 10 8.83337C11.1928 8.83337 12.1667 7.85952 12.1667 6.66671ZM3.83337 14.1667C3.83337 13.7962 4.01501 13.4346 4.40126 13.0781C4.79091 12.7185 5.35451 12.3988 6.01827 12.1329C7.34658 11.6008 8.95004 11.3334 10 11.3334C11.05 11.3334 12.6535 11.6008 13.9818 12.1329C14.6456 12.3988 15.2092 12.7185 15.5988 13.0781C15.9851 13.4346 16.1667 13.7962 16.1667 14.1667V15.8334C16.1667 16.0156 16.0156 16.1667 15.8334 16.1667H4.16671C3.98452 16.1667 3.83337 16.0156 3.83337 15.8334V14.1667Z" fill="white" stroke="white"/>
</svg>
